<svg width="68" height="51" viewBox="0 0 68 51" fill="none" xmlns="http://www.w3.org/2000/svg">
<line x1="1" y1="15" x2="0.999998" y2="50" stroke="#9D9B8F" stroke-width="2"/>
<line y1="50" x2="68" y2="50" stroke="#9D9B8F" stroke-width="2"/>
<line x1="67" y1="50" x2="67" y2="15" stroke="#9D9B8F" stroke-width="2"/>
<line x1="1" y1="12" x2="1" stroke="#9D9B8F" stroke-width="2"/>
<line x1="7" y1="43" x2="7" y2="19" stroke="#9D9B8F" stroke-width="2"/>
<line x1="28" y1="43" x2="28" y2="19" stroke="#9D9B8F" stroke-width="2"/>
<line x1="2" y1="1" x2="66" y2="1" stroke="#9D9B8F" stroke-width="2"/>
<line x1="67" x2="67" y2="12" stroke="#9D9B8F" stroke-width="2"/>
<line x1="2" y1="11" x2="66" y2="11" stroke="#9D9B8F" stroke-width="2"/>
<line x1="35" y1="23" x2="62" y2="23" stroke="#9D9B8F" stroke-width="2"/>
<line x1="35" y1="31" x2="62" y2="31" stroke="#9D9B8F" stroke-width="2"/>
<line x1="35" y1="39" x2="62" y2="39" stroke="#9D9B8F" stroke-width="2"/>
<line x1="6" y1="44" x2="29" y2="44" stroke="#9D9B8F" stroke-width="2"/>
<line x1="6" y1="18" x2="29" y2="18" stroke="#9D9B8F" stroke-width="2"/>
<rect x="5" y="5" width="2" height="2" fill="#9D9B8F"/>
<rect x="12" y="5" width="2" height="2" fill="#9D9B8F"/>
<rect x="18" y="5" width="2" height="2" fill="#9D9B8F"/>
</svg>
